<?xml version="1.0" encoding="UTF-8" standalone="no"?><svg xmlns:dc="http://purl.org/dc/elements/1.1/" xmlns:cc="http://creativecommons.org/ns#" xmlns:rdf="http://www.w3.org/1999/02/22-rdf-syntax-ns#" xmlns:svg="http://www.w3.org/2000/svg" xmlns="http://www.w3.org/2000/svg" id="svg875" version="1.1" width="512" viewBox="0 0 64 64" height="512"> <metadata id="metadata881"> <rdf:RDF> <cc:Work rdf:about=""> <dc:format>image/svg+xml</dc:format> <dc:type rdf:resource="http://purl.org/dc/dcmitype/StillImage"/> <dc:title></dc:title> </cc:Work> </rdf:RDF> </metadata> <defs id="defs879"/> <g id="g873"> <g id="g863" fill="#bddbff"> <path id="path855" d="m53 23h-14v-12h2a12 12 0 0 1 12 12z"/> <path id="path857" d="m39 11v12 18h-36v-32h36z"/> <path id="path859" d="m39 41v9h-22a5 5 0 0 0 -10 0h-3a1 1 0 0 1 -1-1v-8z"/> <path id="path861" d="m61 46v2a2.006 2.006 0 0 1 -2 2h-5a5 5 0 0 0 -10 0h-5v-27h4v11h17.84a3.773 3.773 0 0 1 .16 1.11v2.89h-5a1 1 0 0 0 -1 1v2a1 1 0 0 0 1 1h5z"/> </g> <path id="path865" fill="#3d9ae2" d="m42 37h4v2h-4z"/> <path id="path867" fill="#3d9ae2" d="m11 49h2v2h-2z"/> <path id="path869" fill="#3d9ae2" d="m48 49h2v2h-2z"/> <path id="path871" fill="#3d9ae2" d="m61.31 32.574-4.863-9a2.986 2.986 0 0 0 -2.5-1.555 13.008 13.008 0 0 0 -12.947-12.019h-1v-1a1 1 0 0 0 -1-1h-36a1 1 0 0 0 -1 1v40a2 2 0 0 0 2 2h2.09a5.993 5.993 0 0 0 11.82 0h25.18a5.993 5.993 0 0 0 11.82 0h4.09a3 3 0 0 0 3-3v-12.892a4.959 4.959 0 0 0 -.69-2.534zm-6.623-8.049 4.58 8.475h-15.267v-9h9.807a1 1 0 0 1 .88.525zm-13.687-12.525a11.01 11.01 0 0 1 10.949 10h-11.949v-10zm-37-2h34v30h-34zm8 44a4 4 0 1 1 4-4 4 4 0 0 1 -4 4zm0-10a6.006 6.006 0 0 0 -5.91 5h-2.09v-7h34v7h-20.09a6.006 6.006 0 0 0 -5.91-5zm37 10a4 4 0 1 1 4-4 4 4 0 0 1 -4 4zm10-5h-4.09a5.993 5.993 0 0 0 -11.82 0h-3.09v-25h2v10a1 1 0 0 0 1 1h16.985c0 .036.015.071.015.108v1.892h-4a2 2 0 0 0 -2 2v2a2 2 0 0 0 2 2h4v2h-3v2h3v1a1 1 0 0 1 -1 1zm1-10v2h-4v-2z"/> </g> <g transform="matrix(0.29037609,0,0,0.29037609,-1.6314228,14.596755)" id="g1470"> <path style="stroke-width:0.16666667" d="M 117.88418,45.764898 92.717508,5.4315619 c -3.222005,-5.16406275 -8.776043,-8.2467453 -14.856121,-8.2467453 -6.080079,0 -11.634115,3.08268255 -14.856122,8.2467453 L 37.838598,45.764898 c -1.729818,2.772135 -2.64388,5.972005 -2.64388,9.253255 0,9.64974 7.85026,17.500001 17.500001,17.500001 h 50.333331 c 9.64975,0 17.5,-7.850261 17.5,-17.500001 0,-3.28125 -0.91406,-6.48112 -2.64387,-9.253255 z M 103.02805,67.518153 H 52.694719 c -6.892579,0 -12.500001,-5.607421 -12.500001,-12.5 0,-2.344401 0.652344,-4.628907 1.886068,-6.60612 L 67.247454,8.0786976 c 2.302734,-3.6907556 6.270183,-5.8938808 10.613933,-5.8938808 4.34375,0 8.311199,2.2031252 10.613932,5.8938808 L 113.64199,48.412033 c 1.23372,1.977213 1.88607,4.261719 1.88607,6.60612 0,6.892579 -5.60743,12.5 -12.50001,12.5 z m 0,0" id="path895"/> <path style="stroke-width:0.16666667" d="M 84.233782,10.725182 C 82.850319,8.5083846 80.468157,7.1848166 77.861387,7.1848166 c -2.606772,0 -4.988932,1.323568 -6.372398,3.5403654 L 46.322974,51.058518 c -0.738282,1.182942 -1.128256,2.552084 -1.128256,3.959635 0,4.135416 3.364584,7.5 7.500001,7.5 h 50.333331 c 4.13542,0 7.5,-3.364584 7.5,-7.5 0,-1.407551 -0.38997,-2.776693 -1.1276,-3.959635 z m -3.872395,41.626305 h -5 v -5.000001 h 5 z m 0,-10.000001 h -5 V 24.684818 h 5 z m 0,0" id="path897"/> </g> <path transform="scale(0.125)" id="path1472" d="m 88.70124,430.92091 c -12.686733,-3.07569 -22.278558,-13.64402 -24.145601,-26.60379 -2.985231,-20.72148 14.9506,-38.6487 35.800411,-35.78322 17.02459,2.33977 29.1782,18.19117 27.1139,35.36341 -2.24509,18.67605 -20.5553,31.43913 -38.76871,27.0236 z m 15.2068,-30.85754 0.17735,-8.07921 h -8.256557 -8.256556 v 7.81518 c 0,4.29835 0.198427,8.01361 0.440949,8.25613 0.242523,0.24252 3.878167,0.36133 8.079208,0.26403 l 7.638256,-0.17693 z" style="fill:#ffffff;fill-opacity:1;stroke-width:0.63366336"/> <path transform="scale(0.125)" id="path1474" d="m 384.52852,430.89967 c -23.55797,-5.70215 -32.33422,-35.46118 -15.56368,-52.77428 10.63649,-10.9806 27.42657,-13.03354 40.11972,-4.90549 10.15487,6.50266 16.10551,19.08844 14.41121,30.48013 -0.93731,6.30201 -2.80467,11.01405 -6.09058,15.36882 -7.68463,10.18431 -20.55081,14.81426 -32.87667,11.83082 z m 15.4398,-30.67789 v -8.23762 h -7.9208 -7.92079 v 8.23762 8.23763 h 7.92079 7.9208 z" style="fill:#ffffff;fill-opacity:1;stroke-width:0.63366336"/> <path transform="scale(0.125)" id="path1476" d="m 448.12673,320.06337 v -7.9208 h 15.84159 15.84158 v 7.9208 7.92079 h -15.84158 -15.84159 z" style="fill:#ffffff;fill-opacity:1;stroke-width:0.63366336"/> <path transform="scale(0.125)" id="path1478" d="M 352.44356,228.18218 V 192.3802 h 40.54446 40.54446 l 1.86031,1.74257 c 1.07355,1.00561 9.14591,15.27598 19.08724,33.74258 9.47482,17.6 17.75731,32.92673 18.40555,34.0594 l 1.17861,2.05941 h -60.81031 -60.81032 z" style="fill:#ffffff;fill-opacity:1;stroke-width:0.63366336"/></svg>