<?xml version="1.0" encoding="UTF-8" standalone="no"?><svg xmlns:dc="http://purl.org/dc/elements/1.1/" xmlns:cc="http://creativecommons.org/ns#" xmlns:rdf="http://www.w3.org/1999/02/22-rdf-syntax-ns#" xmlns:svg="http://www.w3.org/2000/svg" xmlns="http://www.w3.org/2000/svg" id="svg863" version="1.1" width="512" viewBox="0 0 64 64" height="512"> <metadata id="metadata869"> <rdf:RDF> <cc:Work rdf:about=""> <dc:format>image/svg+xml</dc:format> <dc:type rdf:resource="http://purl.org/dc/dcmitype/StillImage"/> <dc:title></dc:title> </cc:Work> </rdf:RDF> </metadata> <defs id="defs867"/> <g id="g861"> <g id="g851" fill="#bddbff"> <path id="path843" d="m53 23h-14v-12h2a12 12 0 0 1 12 12z"/> <path id="path845" d="m39 11v12 18h-36v-32h36z"/> <path id="path847" d="m39 41v9h-22a5 5 0 0 0 -10 0h-3a1 1 0 0 1 -1-1v-8z"/> <path id="path849" d="m61 46v2a2.006 2.006 0 0 1 -2 2h-5a5 5 0 0 0 -10 0h-5v-27h4v11h17.84a3.773 3.773 0 0 1 .16 1.11v2.89h-5a1 1 0 0 0 -1 1v2a1 1 0 0 0 1 1h5z"/> </g> <path id="path853" fill="#3d9ae2" d="m42 37h4v2h-4z"/> <path id="path855" fill="#3d9ae2" d="m11 49h2v2h-2z"/> <path id="path857" fill="#3d9ae2" d="m48 49h2v2h-2z"/> <path id="path859" fill="#3d9ae2" d="m61.31 32.574-4.863-9a2.986 2.986 0 0 0 -2.5-1.555 13.008 13.008 0 0 0 -12.947-12.019h-1v-1a1 1 0 0 0 -1-1h-36a1 1 0 0 0 -1 1v40a2 2 0 0 0 2 2h2.09a5.993 5.993 0 0 0 11.82 0h25.18a5.993 5.993 0 0 0 11.82 0h4.09a3 3 0 0 0 3-3v-12.892a4.959 4.959 0 0 0 -.69-2.534zm-6.623-8.049 4.58 8.475h-15.267v-9h9.807a1 1 0 0 1 .88.525zm-13.687-12.525a11.01 11.01 0 0 1 10.949 10h-11.949v-10zm-37-2h34v30h-34zm8 44a4 4 0 1 1 4-4 4 4 0 0 1 -4 4zm0-10a6.006 6.006 0 0 0 -5.91 5h-2.09v-7h34v7h-20.09a6.006 6.006 0 0 0 -5.91-5zm37 10a4 4 0 1 1 4-4 4 4 0 0 1 -4 4zm10-5h-4.09a5.993 5.993 0 0 0 -11.82 0h-3.09v-25h2v10a1 1 0 0 0 1 1h16.985c0 .036.015.071.015.108v1.892h-4a2 2 0 0 0 -2 2v2a2 2 0 0 0 2 2h4v2h-3v2h3v1a1 1 0 0 1 -1 1zm1-10v2h-4v-2z"/> </g> <g id="g892" transform="matrix(0.07127218,0,0,0.07127218,4.203303,8.044232)"> <g id="g890"> <path id="path886" d="m 468.794,355.171 c -1.707,-1.718 -3.897,-2.57 -6.563,-2.57 H 188.145 c -2.664,0 -4.854,0.853 -6.567,2.57 -1.711,1.711 -2.565,3.897 -2.565,6.563 v 18.274 c 0,2.662 0.854,4.853 2.565,6.563 1.713,1.712 3.903,2.57 6.567,2.57 h 274.086 c 2.666,0 4.856,-0.858 6.563,-2.57 1.711,-1.711 2.567,-3.901 2.567,-6.563 v -18.274 c 0.004,-2.666 -0.848,-4.852 -2.567,-6.563 z"/> <path id="path888" d="m 30.259,85.075 c -1.903,-1.903 -4.093,-2.856 -6.567,-2.856 -2.474,0 -4.661,0.953 -6.563,2.856 L 2.852,99.353 C 0.95,101.255 0,103.442 0,105.918 c 0,2.478 0.95,4.664 2.852,6.567 L 115.06,224.69 2.852,336.896 C 0.95,338.799 0,340.989 0,343.46 c 0,2.478 0.95,4.665 2.852,6.567 L 17.128,364.3 c 1.903,1.906 4.089,2.854 6.563,2.854 2.474,0 4.665,-0.951 6.567,-2.854 L 163.306,231.255 c 1.903,-1.902 2.853,-4.096 2.853,-6.57 0,-2.473 -0.95,-4.663 -2.853,-6.565 z"/> </g> </g> <path transform="scale(0.125)" id="path1470" d="m 88.70124,430.92091 c -12.686733,-3.07569 -22.278558,-13.64402 -24.145601,-26.60379 -2.985231,-20.72148 14.9506,-38.6487 35.800411,-35.78322 17.02459,2.33977 29.1782,18.19117 27.1139,35.36341 -2.24509,18.67605 -20.5553,31.43913 -38.76871,27.0236 z m 15.2068,-30.85754 0.17735,-8.07921 h -8.256557 -8.256556 v 7.81518 c 0,4.29835 0.198427,8.01361 0.440949,8.25613 0.242523,0.24252 3.878167,0.36133 8.079208,0.26403 l 7.638256,-0.17693 z" style="fill:#ffffff;fill-opacity:1;stroke-width:0.63366336"/> <path transform="scale(0.125)" id="path1472" d="m 384.52852,430.89967 c -23.55797,-5.70215 -32.33422,-35.46118 -15.56368,-52.77428 10.63649,-10.9806 27.42657,-13.03354 40.11972,-4.90549 10.15487,6.50266 16.10551,19.08844 14.41121,30.48013 -0.93731,6.30201 -2.80467,11.01405 -6.09058,15.36882 -7.68463,10.18431 -20.55081,14.81426 -32.87667,11.83082 z m 15.4398,-30.67789 v -8.23762 h -7.9208 -7.92079 v 8.23762 8.23763 h 7.92079 7.9208 z" style="fill:#ffffff;fill-opacity:1;stroke-width:0.63366336"/> <path transform="scale(0.125)" id="path1474" d="m 448.12673,320.06337 v -7.9208 h 15.84159 15.84158 v 7.9208 7.92079 h -15.84158 -15.84159 z" style="fill:#ffffff;fill-opacity:1;stroke-width:0.63366336"/> <path transform="scale(0.125)" id="path1476" d="M 352.44356,228.18218 V 192.3802 h 40.54446 40.54446 l 1.86031,1.74257 c 1.07355,1.00561 9.14591,15.27598 19.08724,33.74258 9.47482,17.6 17.75731,32.92673 18.40555,34.0594 l 1.17861,2.05941 h -60.81031 -60.81032 z" style="fill:#ffffff;fill-opacity:1;stroke-width:0.63366336"/></svg>